# xmcd
#
# Track frame offsets: 
#        150
#        13205
#        27017
#        39770
#        54672
#        68147
#        81807
#        94832
#        110897
#        125840
#        138472
#        151672
#        165697
#        178722
#        193705
#        208337
#        221575
#        235077
#        249122
#
# Disc length: 3385 seconds
#
# Revision: 1
# Processed by: cddbd v1.5.2PL0 Copyright (c) Steve Scherf et al.
# Submitted via: ExactAudioCopy v0.95b4
#
DISCID=090d3713
DTITLE=Various Artist - Nashville: The Early String Bands, Vol. 2
DYEAR=2000
DGENRE=Old-Timey
TTITLE0=Crook Brothers String Band - Going Across the Sea [1928]
TTITLE1=Uncle Dave Macon - Over the Road I'm Bound to Go [1928]
TTITLE2=Theron Hale and Daughters - Hale's Rag [1928]
TTITLE3=DeFord Bailey - Ice Water Blues [1928]
TTITLE4=McGee Brothers and Todd - Old Master's Runaway [1927]
TTITLE5=Uncle Jimmy Thompson - Karo [1926]
TTITLE6=Blind Joe Mangrum and Fred Shriver - Bill Cheatam [1928]
TTITLE7=Sam and Kirk McGee - Brown's Ferry Blues [1934]
TTITLE8=Uncle Jimmy Thompson - Uncle Jimmy's Favorite Fiddling Pieces 
TTITLE8=(Flying Clouds and Leather Breeches) [1930]
TTITLE9=Theron Hale and Daughters - Jolly Blacksmith [1928]
TTITLE10=Crook Brothers String Band - Jobbin Gettin' There [1928]
TTITLE11=DeFord Bailey - Alcoholic Blues [1927]
TTITLE12=Blind Joe Mangrum and Fred Shriver - Bacon and Cabbage [1928]
TTITLE13=Uncle Jimmy Thompson - Billy Wilson [1926]
TTITLE14=DeFord Bailey - Muscle Shoals Blues [1927]
TTITLE15=Crook Brothers String Band - Love Somebody [1928]
TTITLE16=Theron Hale and Band - Fire in the Mountain [~1948]
TTITLE17=Uncle Dave Macon and His Fruit Jar Guzzlers - Bake That Chicken
TTITLE17=Pie [1927]
TTITLE18=DeFord Bailey - John Henry [~early 1950s]
EXTD=Tracks 1-3,5-8,10,11,14,18 previously compiled, under same title,
EXTD=as County Records LP 542 (1976), along with one cut not on the C
EXTD=D, "Pan American Blues" by DeFord Bailey.\nCD: County Records CO-
EXTD=CD-3522 (2000-10-10), UPC 009001352224.
EXTT0=
EXTT1=
EXTT2=
EXTT3=
EXTT4=
EXTT5=
EXTT6=
EXTT7=
EXTT8=
EXTT9=
EXTT10=
EXTT11=
EXTT12=
EXTT13=
EXTT14=
EXTT15=
EXTT16=
EXTT17=
EXTT18=
PLAYORDER=
